<svg id="Layer_1" data-name="Layer 1" xmlns="http://www.w3.org/2000/svg" viewBox="0 0 19 24"><defs><style>.cls-1{fill:none;}.cls-2{fill:#fff;stroke:#e6e7e8;stroke-miterlimit:10;stroke-width:0.15px;}.cls-3{fill:#252f3e;}.cls-4{fill:#f90;fill-rule:evenodd;}</style></defs><rect class="cls-1" width="19" height="24"/><circle class="cls-2" cx="9.5" cy="12" r="8.9"/><path class="cls-3" d="M6.5,10.9v.4c0,.1.1.2.1.3v.1c0,.1,0,.1-.1.1l-.2.2H6.2c-.1,0-.1,0-.1-.1-.1.1-.1,0-.2-.1s-.1-.2-.1-.3a1.61,1.61,0,0,1-1.3.6,1.4,1.4,0,0,1-.9-.3,1.19,1.19,0,0,1,0-1.8,1.5,1.5,0,0,1,1.1-.4h.5a4.33,4.33,0,0,1,.5.1V9.4a1.45,1.45,0,0,0-.2-.7,1,1,0,0,0-.7-.2.9.9,0,0,0-.5.1c-.2,0-.3.1-.5.2s-.1,0-.2.1H3.5c-.1,0-.1,0-.1-.1V8.2l.1-.1c.3,0,.5-.1.7-.1a1.7,1.7,0,0,1,.7-.1,1.75,1.75,0,0,1,1.2.4,1.5,1.5,0,0,1,.4,1.1v1.5Zm-1.9.7a.9.9,0,0,0,.5-.1,1.38,1.38,0,0,0,.4-.3c.1-.1.1-.2.2-.3s.1-.3.1-.4v-.2c-.1,0-.3-.1-.4-.1H5a1,1,0,0,0-.7.2.56.56,0,0,0-.1.9h0c0,.2.2.3.4.3Zm3.7.5H8.1a.35.35,0,0,1-.1-.2L7,8.3V8.1C6.9,8,6.9,8,7,8h.7c0,.1.1.1.1.2l.8,3,.7-3c0-.1,0-.1.1-.2h.7a.35.35,0,0,1,.1.2l.7,3.1.8-3.1c0-.1,0-.1.1-.2s.1-.1.2,0h.4c.1,0,.1,0,.1.1h0v.2l-1.1,3.6c0,.1,0,.1-.1.2s-.1.1-.2,0h-.6c0-.1-.1-.1-.1-.2l-.7-3-.7,3c0,.1,0,.1-.1.2s-.1.1-.2,0Zm5.9.1a1.7,1.7,0,0,1-.7-.1.76.76,0,0,1-.5-.2.1.1,0,0,1-.1-.1v-.3c0-.1,0-.1.1-.1h.2c.2.1.3.1.5.2a4.33,4.33,0,0,1,.5.1,1,1,0,0,0,.7-.2.4.4,0,0,0,.2-.4.37.37,0,0,0-.1-.3.76.76,0,0,0-.5-.2l-.7-.2a1.16,1.16,0,0,1-.7-.5,1.45,1.45,0,0,1-.2-.7.75.75,0,0,1,.1-.5c.1-.1.2-.3.3-.4a.76.76,0,0,1,.5-.2,1.27,1.27,0,0,1,.6-.1H15a.37.37,0,0,1,.3.1c.1,0,.1,0,.2.1a.1.1,0,0,1,.1.1v.4c0,.1,0,.1-.1.1s-.1,0-.2-.1a2.92,2.92,0,0,0-.9-.2,1.27,1.27,0,0,0-.6.1.52.52,0,0,0-.2.4.37.37,0,0,0,.1.3,2.19,2.19,0,0,0,.5.3l.7.2a1.61,1.61,0,0,1,.7.4,1.42,1.42,0,0,1,.2.6.75.75,0,0,1-.1.5,1.38,1.38,0,0,1-.3.4c-.2.1-.3.2-.5.3a1.85,1.85,0,0,1-.7.2Z"/><path class="cls-4" d="M15.1,14.4a10,10,0,0,1-5.6,1.7,10,10,0,0,1-6.8-2.6c-.1-.1,0-.3.2-.2a13.57,13.57,0,0,0,6.8,1.8A13.1,13.1,0,0,0,14.9,14C15.1,14,15.3,14.2,15.1,14.4Z"/><path class="cls-4" d="M15.7,13.7c-.2-.3-1.3-.1-1.8-.1-.1,0-.2-.1,0-.2a2.83,2.83,0,0,1,2.5-.2,2.43,2.43,0,0,1-.9,2.3c-.1.1-.2.1-.2-.1C15.5,15,15.9,13.9,15.7,13.7Z"/></svg>