<svg id="Layer_1" data-name="Layer 1" xmlns="http://www.w3.org/2000/svg" xmlns:xlink="http://www.w3.org/1999/xlink" viewBox="0 0 19 24"><defs><style>.cls-1,.cls-2{fill:none;}.cls-2{stroke:#e6e7e8;stroke-miterlimit:10;stroke-width:0.15px;}.cls-3{fill:url(#linear-gradient);}.cls-4{fill:#fff;}</style><linearGradient id="linear-gradient" x1="1091.55" y1="523.44" x2="1091.55" y2="498.96" gradientTransform="matrix(-0.71, -0.71, -0.71, 0.71, 1142.81, 422.37)" gradientUnits="userSpaceOnUse"><stop offset="0" stop-color="#c8511b"/><stop offset="1" stop-color="#f90"/></linearGradient></defs><rect class="cls-1" width="19" height="24"/><circle class="cls-2" cx="9.5" cy="12" r="8.9"/><g id="Working"><rect id="Orange_Gradient" data-name="Orange Gradient" class="cls-3" x="3.38" y="5.88" width="12.24" height="12.24"/><g id="Icon_Test" data-name="Icon Test"><path class="cls-4" d="M13.25,12.49h-.81v-.33h.81V8.25H9.34v.81H9V8.25a.33.33,0,0,1,.33-.33h3.91a.33.33,0,0,1,.33.33v3.91A.33.33,0,0,1,13.25,12.49Z"/><path class="cls-4" d="M9.66,16.08H5.74a.32.32,0,0,1-.32-.33V11.84a.32.32,0,0,1,.32-.33h.82v.33H5.74v3.91H9.66v-.81H10v.81A.33.33,0,0,1,9.66,16.08Z"/><path class="cls-4" d="M12.11,10.53V10.2h-.49a.34.34,0,0,0-.32-.32V9.39H11v.49h-.49V9.39h-.33v.49H9.66V9.39H9.34v.49H8.85V9.39H8.52v.49H8V9.39H7.7v.49a.34.34,0,0,0-.32.32H6.89v.33h.49V11H6.89v.33h.49v.49H6.89v.32h.49v.49H6.89V13h.49v.49H6.89v.33h.49a.34.34,0,0,0,.32.32v.49H8v-.49h.49v.49h.33v-.49h.49v.49h.32v-.49h.49v.49h.33v-.49H11v.49h.33v-.49a.34.34,0,0,0,.32-.32h.49v-.33h-.49V13h.49v-.33h-.49v-.49h.49v-.32h-.49v-.49h.49V11h-.49v-.49Zm-.81,3.24,0,0H7.73a0,0,0,0,1,0,0h0V10.23a0,0,0,0,1,0,0h3.54l0,0h0Z"/></g></g></svg>