<svg id="Layer_1" data-name="Layer 1" xmlns="http://www.w3.org/2000/svg" xmlns:xlink="http://www.w3.org/1999/xlink" viewBox="0 0 19 24"><defs><style>.cls-1,.cls-2{fill:none;}.cls-2{stroke:#e6e7e8;stroke-miterlimit:10;stroke-width:0.15px;}.cls-3{fill:url(#linear-gradient);}.cls-4{fill:#fff;}</style><linearGradient id="linear-gradient" x1="-519.76" y1="-448.74" x2="-502.24" y2="-466.26" gradientTransform="matrix(0, -1, -1, 0, -448, -499)" gradientUnits="userSpaceOnUse"><stop offset="0" stop-color="#1b660f"/><stop offset="1" stop-color="#6cae3e"/></linearGradient></defs><rect class="cls-1" width="19" height="24"/><circle class="cls-2" cx="9.5" cy="12" r="8.9"/><g id="Reference"><rect id="Green_Gradient" data-name="Green Gradient" class="cls-3" x="3.31" y="5.81" width="12.39" height="12.39"/><g id="Icon_Test" data-name="Icon Test"><path class="cls-4" d="M13.45,12.42c0-.26-.34-.44-.54-.57s-.24-.11-.26-.17a.5.5,0,0,1,0-.12l.17-1.19c0-.34.09-.69.14-1a.72.72,0,0,0-.37-.72A4.87,4.87,0,0,0,10.75,8a9.4,9.4,0,0,0-2.37-.07,6.73,6.73,0,0,0-2.07.49c-.35.17-.82.43-.76.88.17,1.34.36,2.68.54,4l.25,1.84a.67.67,0,0,0,.4.55,4.47,4.47,0,0,0,1.72.41,8.3,8.3,0,0,0,2.28-.1c.47-.09,1.36-.23,1.44-.82.09-.74.19-1.48.29-2.21l0-.23C12.78,12.81,13.55,12.94,13.45,12.42ZM9.26,8.2a6.41,6.41,0,0,1,3,.6c.13.08.45.25.36.45s-.4.3-.58.37a4.55,4.55,0,0,1-.8.23,10.25,10.25,0,0,1-3.58.07,4.35,4.35,0,0,1-1.53-.45c-.12-.07-.32-.19-.27-.35a.58.58,0,0,1,.2-.21,3.43,3.43,0,0,1,1.19-.48A8.33,8.33,0,0,1,9.26,8.2Zm2.59,7c0,.2-.34.29-.49.35a4.76,4.76,0,0,1-1,.21,8.1,8.1,0,0,1-2.2,0,3.64,3.64,0,0,1-1.33-.35.32.32,0,0,1-.19-.29c-.17-1.31-.36-2.62-.53-3.93l-.2-1.42a3.79,3.79,0,0,0,1.21.42,7.91,7.91,0,0,0,1.37.18,10.25,10.25,0,0,0,2.71-.15,4.11,4.11,0,0,0,1.36-.45l-.35,2.59a17.93,17.93,0,0,1-2.45-1l-.1-.05s0,0-.06-.06A.52.52,0,0,0,9.48,11,.38.38,0,0,0,9,11a.37.37,0,0,0,.06.52.34.34,0,0,0,.26.08.42.42,0,0,0,.16,0,.14.14,0,0,1,.14,0,22.12,22.12,0,0,0,2.47,1c.13,0,.13,0,.13.1l0,.24-.11.79ZM9.3,11.26s-.06,0-.08,0S9.3,11.19,9.3,11.26Zm3.26,1.15,0-.36c.16.09.44.23.52.42A1,1,0,0,1,12.56,12.41Z"/></g></g></svg>