<?xml version="1.0" encoding="utf-8"?>
<!-- Generator: Adobe Illustrator 25.2.0, SVG Export Plug-In . SVG Version: 6.00 Build 0)  -->
<svg version="1.1" id="Layer_1" xmlns="http://www.w3.org/2000/svg" xmlns:xlink="http://www.w3.org/1999/xlink" x="0px" y="0px"
	 viewBox="0 0 19 24" style="enable-background:new 0 0 19 24;" xml:space="preserve">
<style type="text/css">
	.st0{fill:none;}
	.st1{fill:none;stroke:#E6E7E8;stroke-width:0.15;stroke-miterlimit:10;}
	.st2{fill:url(#Purple_Gradient_1_);}
	.st3{fill:#FFFFFF;}
</style>
<rect class="st0" width="19" height="24"/>
<circle class="st1" cx="9.5" cy="12" r="8.9"/>
<g id="Reference">
	
		<linearGradient id="Purple_Gradient_1_" gradientUnits="userSpaceOnUse" x1="814.2529" y1="-265.2036" x2="789.4421" y2="-265.2036" gradientTransform="matrix(-0.7071 0.7071 0.7071 0.7071 764.0191 -367.4645)">
		<stop  offset="0" style="stop-color:#4D27A8"/>
		<stop  offset="1" style="stop-color:#A166FF"/>
	</linearGradient>
	<rect id="Purple_Gradient" x="3.3" y="5.8" class="st2" width="12.4" height="12.4"/>
	<g id="Icon_Test">
		<path class="st3" d="M10.9,15.8l-0.3-0.2c0.2-0.3,0.3-0.6,0.4-0.9l0.3,0.1C11.2,15.2,11.1,15.5,10.9,15.8z M11.2,12.8
			c-0.1-0.9-0.4-1.8-0.9-2.6l0.3-0.2c0.5,0.8,0.9,1.8,0.9,2.8L11.2,12.8z M9.1,8.8C8.8,8.6,8.6,8.5,8.3,8.3L8.4,8
			C8.7,8.2,9,8.4,9.3,8.5L9.1,8.8z"/>
		<path class="st3" d="M10.4,13.2c-0.5-0.5-1.2-0.9-1.8-1.2l0.1-0.3c0.7,0.3,1.4,0.7,2,1.2L10.4,13.2z"/>
		<path class="st3" d="M11.8,15.2c-0.1-0.2-0.1-0.3-0.2-0.5l0.3-0.1c0.1,0.2,0.2,0.3,0.2,0.5L11.8,15.2z"/>
		<path class="st3" d="M10.8,15.9l-0.1-0.3c0.4-0.1,0.8-0.3,1.1-0.6l0.2,0.3C11.7,15.5,11.3,15.8,10.8,15.9z"/>
		<path class="st3" d="M5.6,11.9l-0.1-0.3c0.4-0.1,0.7-0.1,1.1-0.1l0,0.3C6.3,11.8,5.9,11.8,5.6,11.9z"/>
		<path class="st3" d="M8.3,10.9L8,10.7c0.2-0.4,0.5-0.8,0.9-1.1l0.2,0.2C8.8,10.2,8.5,10.5,8.3,10.9z"/>
		<path class="st3" d="M10.7,8.9l-0.1-0.3c0.2-0.1,0.5-0.2,0.8-0.2l0.1,0.3C11.2,8.8,11,8.8,10.7,8.9z"/>
		<path class="st3" d="M7.5,15.6c-0.3-0.6-0.4-1.3-0.4-2c0-0.3,0-0.5,0.1-0.8c0-0.1,0-0.1,0-0.2l0.3,0.1c0,0.1,0,0.1,0,0.2
			c-0.1,0.2-0.1,0.5-0.1,0.7c0,0.6,0.1,1.3,0.4,1.9L7.5,15.6z"/>
		<path class="st3" d="M9.5,16.1c-2.3,0-4.1-1.9-4.1-4.1c0-0.1,0-0.2,0-0.2C5.5,10,6.7,8.5,8.3,8c1.1-0.3,2.2-0.2,3.2,0.4
			c2,1.1,2.7,3.6,1.6,5.6c-0.3,0.5-0.6,0.9-1.1,1.2C11.3,15.8,10.4,16.1,9.5,16.1z M9.5,8.2c-0.4,0-0.7,0.1-1.1,0.2
			c-1.5,0.5-2.6,1.8-2.7,3.4c0,0.1,0,0.2,0,0.2c0,2.1,1.7,3.8,3.8,3.8c0.4,0,0.8-0.1,1.2-0.2c0.4-0.1,0.8-0.3,1.1-0.6
			c1.7-1.3,2-3.7,0.7-5.3C11.8,8.7,10.7,8.2,9.5,8.2z"/>
		<path class="st3" d="M9.9,10.1c-0.4,0-0.7-0.3-0.7-0.7c0-0.4,0.3-0.7,0.7-0.7c0.4,0,0.7,0.3,0.7,0.7c0,0,0,0,0,0
			C10.6,9.8,10.3,10.1,9.9,10.1C9.9,10.1,9.9,10.1,9.9,10.1z M9.9,9C9.7,9,9.5,9.1,9.5,9.4s0.2,0.4,0.4,0.4c0.2,0,0.4-0.2,0.4-0.4
			S10.1,9,9.9,9L9.9,9z"/>
		<path class="st3" d="M7.6,12.4c-0.4,0-0.7-0.3-0.7-0.7s0.3-0.7,0.7-0.7s0.7,0.3,0.7,0.7C8.4,12.1,8.1,12.4,7.6,12.4z M7.6,11.3
			c-0.2,0-0.4,0.2-0.4,0.4s0.2,0.4,0.4,0.4c0.2,0,0.4-0.2,0.4-0.4C8,11.4,7.9,11.3,7.6,11.3C7.6,11.3,7.6,11.3,7.6,11.3L7.6,11.3z"
			/>
		<path class="st3" d="M11.3,14.5c-0.4,0-0.7-0.3-0.7-0.7s0.3-0.7,0.7-0.7c0.4,0,0.7,0.3,0.7,0.7c0,0,0,0,0,0
			C12,14.2,11.7,14.5,11.3,14.5L11.3,14.5z M11.3,13.4c-0.2,0-0.4,0.2-0.4,0.4c0,0.2,0.2,0.4,0.4,0.4s0.4-0.2,0.4-0.4c0,0,0,0,0,0
			C11.7,13.6,11.5,13.4,11.3,13.4z"/>
	</g>
</g>
</svg>
