<?xml version="1.0" encoding="utf-8"?>
<!-- Generator: Adobe Illustrator 25.2.0, SVG Export Plug-In . SVG Version: 6.00 Build 0)  -->
<svg version="1.1" id="Layer_1" xmlns="http://www.w3.org/2000/svg" xmlns:xlink="http://www.w3.org/1999/xlink" x="0px" y="0px"
	 viewBox="0 0 19 24" style="enable-background:new 0 0 19 24;" xml:space="preserve">
<style type="text/css">
	.st0{fill:none;}
	.st1{fill:none;stroke:#E6E7E8;stroke-width:0.15;stroke-miterlimit:10;}
	.st2{fill:url(#Green_Gradient_1_);}
	.st3{fill:#FFFFFF;}
</style>
<rect class="st0" width="19" height="24"/>
<circle class="st1" cx="9.5" cy="12" r="8.9"/>
<g id="Reference">
	
		<linearGradient id="Green_Gradient_1_" gradientUnits="userSpaceOnUse" x1="-329.734" y1="-258.766" x2="-312.266" y2="-276.234" gradientTransform="matrix(6.123234e-17 -1 -1 -6.123234e-17 -258 -309)">
		<stop  offset="0" style="stop-color:#1B660F"/>
		<stop  offset="1" style="stop-color:#6CAE3E"/>
	</linearGradient>
	<rect id="Green_Gradient" x="3.3" y="5.8" class="st2" width="12.4" height="12.4"/>
	<g id="Icon_Test">
		<path class="st3" d="M9.3,7.9c-1.8,0-3.7,0.5-3.7,1.3c0,0,0,0,0,0l0,0.1c0,0,0,0,0,0l0.8,5.9c0,0.7,1.8,0.9,2.9,0.9
			c0.4,0,0.8,0,1.1-0.1l0-0.3c-0.4,0-0.7,0.1-1.1,0.1c-1.6,0-2.6-0.4-2.6-0.6c0,0,0,0,0,0L6,9.7c0.1,0,0.1,0.1,0.2,0.1
			c0,0,0.1,0,0.1,0c0,0,0.1,0,0.1,0c0,0,0.1,0,0.2,0.1s0.1,0,0.2,0.1c0.1,0,0.1,0,0.2,0.1l0.1,0c0.4,0.1,0.8,0.1,1.2,0.2
			c0.1,0,0.2,0,0.3,0c0.3,0,0.5,0,0.8,0c0.3,0,0.5,0,0.8,0c0.1,0,0.2,0,0.3,0c0.3,0,0.6-0.1,0.9-0.1l0.1,0l0.1,0l0.1,0
			c0.1,0,0.2,0,0.3-0.1l0.1,0c0.1,0,0.1,0,0.2-0.1c0,0,0.1,0,0.1,0c0,0,0.1,0,0.1,0c0.1,0,0.1-0.1,0.2-0.1l-0.4,2.6l0.2,0.1l0.1,0
			l0-0.4c-0.1,0-0.1-0.1-0.2-0.1l0,0l0.2-0.3l0,0l0.1,0L13,9.3l0,0c0,0,0,0,0,0V9.2c0,0,0,0,0,0C13,8.4,11,7.9,9.3,7.9z M12.5,9.4
			c-0.1,0.1-0.2,0.1-0.3,0.2c0,0-0.1,0-0.1,0c-0.1,0-0.1,0-0.2,0.1l-0.1,0c-0.1,0-0.2,0.1-0.3,0.1l-0.1,0l-0.2,0
			c-0.1,0-0.2,0-0.4,0.1c-0.1,0-0.1,0-0.2,0c-0.1,0-0.2,0-0.3,0c-0.1,0-0.2,0-0.2,0c-0.2,0-0.5,0-0.7,0c-0.3,0-0.5,0-0.7,0
			c-0.1,0-0.2,0-0.2,0c-0.1,0-0.2,0-0.3,0c-0.1,0-0.1,0-0.2,0c-0.3,0-0.5-0.1-0.7-0.1L6.9,9.8c-0.1,0-0.1,0-0.2-0.1l-0.1,0
			c-0.1,0-0.1,0-0.2-0.1C6.3,9.5,6.1,9.5,6,9.4c0,0-0.1,0-0.1-0.1c0,0,0,0,0,0c0,0,0,0,0,0c0,0,0,0,0,0l0,0l0,0v0c0-0.3,1.4-1,3.4-1
			s3.4,0.6,3.4,1v0l0,0l0,0c0,0,0,0,0,0c0,0,0,0,0,0c0,0,0,0,0,0C12.6,9.4,12.5,9.4,12.5,9.4z"/>
		<path class="st3" d="M5.9,9.2C5.9,9.2,5.9,9.2,5.9,9.2C5.9,9.2,5.9,9.2,5.9,9.2L5.9,9.2z"/>
		<path class="st3" d="M6,9.4c0.1,0.1,0.2,0.1,0.4,0.2C6.3,9.5,6.1,9.5,6,9.4z"/>
		<path class="st3" d="M11.4,9.8c0.1,0,0.2-0.1,0.3-0.1C11.7,9.8,11.5,9.8,11.4,9.8z"/>
		<path class="st3" d="M12.5,9.4c-0.1,0.1-0.2,0.1-0.3,0.2C12.3,9.5,12.4,9.5,12.5,9.4z"/>
		<path class="st3" d="M12.4,12.4l0.1,0l0,0.3l0,0.1l-0.3,0l0-0.1l0-0.3L12.4,12.4z"/>
		<path class="st3" d="M12.6,11.7L12.6,11.7l0,0.4c-0.1,0-0.1-0.1-0.2-0.1l0,0L12.6,11.7L12.6,11.7z"/>
		<path class="st3" d="M12.6,9.2L12.6,9.2C12.6,9.2,12.6,9.2,12.6,9.2C12.6,9.2,12.6,9.2,12.6,9.2z"/>
		<path class="st3" d="M13.4,12.7c-0.1,0.1-0.2,0.1-0.4,0.1c-0.2,0-0.3,0-0.5-0.1l-0.2,0l-0.1,0c-0.9-0.3-1.8-0.7-2.7-1.1l-0.1-0.1
			l0.1-0.3l0.1,0.1c0.8,0.4,1.7,0.8,2.6,1.1l0.2,0.1l0.1,0c0.4,0.1,0.5,0.1,0.6,0.1c0,0-0.1-0.2-0.5-0.4c-0.1,0-0.1-0.1-0.2-0.1l0,0
			l0.2-0.3l0,0l0.1,0c0.5,0.3,0.8,0.5,0.8,0.7C13.5,12.5,13.4,12.6,13.4,12.7z"/>
		<path class="st3" d="M9.3,11.6c-0.2,0-0.4-0.2-0.4-0.4c0-0.2,0.2-0.4,0.4-0.4c0.2,0,0.4,0.2,0.4,0.4C9.6,11.5,9.5,11.6,9.3,11.6
			C9.3,11.6,9.3,11.6,9.3,11.6z M9.3,11.2C9.2,11.2,9.2,11.2,9.3,11.2C9.2,11.3,9.3,11.3,9.3,11.2C9.3,11.2,9.3,11.2,9.3,11.2z"/>
		<polygon class="st3" points="12.8,14.8 12.2,14.8 12.5,15.3 13,15.5 13,15.8 12.5,15.7 12.4,16.1 12.1,16 12.2,15.5 11.9,14.9 
			11.9,14.9 11.6,15.5 11.7,16 11.4,16.1 11.3,15.7 10.8,15.8 10.7,15.5 11.3,15.3 11.6,14.8 11,14.8 10.5,15.2 10.3,14.9 
			10.6,14.6 10.3,14.3 10.5,14 10.9,14.4 11.6,14.4 11.3,13.9 10.7,13.7 10.8,13.4 11.3,13.5 11.4,13.1 11.7,13.2 11.6,13.7 
			11.9,14.3 12.2,13.7 12.1,13.2 12.4,13.1 12.5,13.5 13,13.4 13,13.7 12.5,13.9 12.2,14.4 12.8,14.4 13.2,14 13.5,14.3 13.1,14.6 
			13.5,14.9 13.2,15.2 		"/>
	</g>
</g>
</svg>
