<svg id="Layer_1" data-name="Layer 1" xmlns="http://www.w3.org/2000/svg" viewBox="0 0 19 24"><defs><style>.cls-1,.cls-2{fill:#fff;}.cls-2{stroke:#e6e7e8;stroke-miterlimit:10;stroke-width:0.15px;}.cls-3{fill:#172b4d;}</style></defs><rect class="cls-1" width="19" height="24"/><circle class="cls-2" cx="9.5" cy="12" r="8.9"/><path class="cls-3" d="M3.1,11.6a3.19,3.19,0,0,0,1.4.3h0a2.77,2.77,0,0,0,.9-.1.1.1,0,0,0,.1-.1,4.19,4.19,0,0,1,.4-1.5v-.1h0a2.18,2.18,0,0,1-.8-.5,9,9,0,0,1-1-.9H4a7.37,7.37,0,0,1-.4,1.4c-.2.5-.3.9-.5,1.5Zm3,2.6h0a3,3,0,0,1-.5-1.6.1.1,0,0,0-.1-.1h0a2.77,2.77,0,0,1-.9.1,5.07,5.07,0,0,1-1.3-.2s-.1-.1-.1,0v.1h0a5.78,5.78,0,0,1,.5,1.4,10.26,10.26,0,0,1,.4,1.4.1.1,0,0,0,.1.1,3.1,3.1,0,0,0,1.3-.6l.6-.6Zm4-8.2a.1.1,0,0,0-.1-.1L6.4,5.2c-.1,0-.2,0-.2.1v.1l.5.7a3.45,3.45,0,0,1-.8.9,14.8,14.8,0,0,0-1.3.8s-.1.1,0,.1A3.46,3.46,0,0,0,5.6,9a3.51,3.51,0,0,0,.8.5h.1a4.12,4.12,0,0,1,1.3-1l.2.9c0,.1.1.2.2.1a.1.1,0,0,0,.1-.1l1.9-3.2c0-.1,0-.1-.1-.2ZM8,15.7a3.81,3.81,0,0,1-1.3-.9H6.6c-.2.2-.5.4-.7.6a3.38,3.38,0,0,1-1.2.6l-.1.1v.1a8.34,8.34,0,0,0,1.2.8c.4.3.8.7,1.2,1h.1a3.29,3.29,0,0,0,.7-1.3,3,3,0,0,0,.2-1Zm8-3.3a3.19,3.19,0,0,0-1.4-.3,2.77,2.77,0,0,0-.9.1.1.1,0,0,0-.1.1,4.19,4.19,0,0,1-.4,1.5v.1h0a2.18,2.18,0,0,1,.8.5,9,9,0,0,1,1,.9h.1a10.78,10.78,0,0,1,.9-2.9ZM13,9.8h0a3,3,0,0,1,.5,1.6.1.1,0,0,0,.1.1h0a2.77,2.77,0,0,1,.9-.1,6.75,6.75,0,0,1,1.4.2h0a.1.1,0,0,0,.1-.1h0a6.94,6.94,0,0,1-.5-1.3,10.26,10.26,0,0,1-.4-1.4.1.1,0,0,0-.1-.1,3.1,3.1,0,0,0-1.3.6c-.3,0-.5.3-.7.5ZM11.1,8.3a3.81,3.81,0,0,1,1.3.9h.2c.2-.2.5-.4.7-.6A3.38,3.38,0,0,1,14.5,8s.1-.1,0-.1h0c-.5-.4-.9-.6-1.3-.9A10.59,10.59,0,0,1,12,6h-.1a3.29,3.29,0,0,0-.7,1.3,1.64,1.64,0,0,0-.1,1Zm2.4,6.8c-.3-.2-.5-.3-.8-.5h-.1a4.12,4.12,0,0,1-1.3,1l-.2-.9c0-.1-.1-.2-.2-.1a.1.1,0,0,0-.1.1L8.9,17.8c0,.1,0,.2.1.2h.1l3.6.7h0a.22.22,0,0,0,.2-.2h0v-.1l-.5-.7c.3-.3.6-.5.9-.8a5.67,5.67,0,0,1,1.3-.8V16h0a4.81,4.81,0,0,0-1.1-.9Z"/></svg>