<svg id="Layer_1" data-name="Layer 1" xmlns="http://www.w3.org/2000/svg" xmlns:xlink="http://www.w3.org/1999/xlink" viewBox="0 0 19 24.1"><defs><style>.cls-1{fill:none;}.cls-2{fill:#fff;stroke:#e6e7e8;stroke-miterlimit:10;stroke-width:0.15px;}.cls-3{fill:#2684ff;}.cls-4{fill:url(#linear-gradient);}</style><linearGradient id="linear-gradient" x1="-90.14" y1="62.42" x2="-90.14" y2="62.42" gradientTransform="matrix(1996.63, 0, 0, -1480.3, 179986.95, 92419.61)" gradientUnits="userSpaceOnUse"><stop offset="0.18" stop-color="#0052cc"/><stop offset="1" stop-color="#2684ff"/></linearGradient></defs><rect class="cls-1" width="19" height="24.1"/><circle class="cls-2" cx="9.5" cy="12.3" r="8.9"/><path class="cls-1" d="M8.3,14h2.4l.6-3.4H7.7Z"/><path class="cls-3" d="M4.1,7.1a.43.43,0,0,0-.4.4h0v.1L5.3,17c0,.2.3.4.5.4h7.5c.2,0,.3-.1.4-.3l1.6-9.6c0-.2-.1-.4-.3-.4H4.1ZM10.7,14H8.3l-.6-3.4h3.6Z"/><path class="cls-4" d="M14.7,10.6H11.3L10.7,14H8.3L5.5,17.3a.37.37,0,0,0,.3.1h7.5c.2,0,.3-.1.4-.3Z"/></svg>