<svg id="Layer_1" data-name="Layer 1" xmlns="http://www.w3.org/2000/svg" xmlns:xlink="http://www.w3.org/1999/xlink" viewBox="0 0 19 24"><defs><style>.cls-1{fill:none;}.cls-2{fill:#fff;stroke:#e6e7e8;stroke-miterlimit:10;stroke-width:0.15px;}.cls-3{fill:url(#linear-gradient);}.cls-4{fill:url(#linear-gradient-2);}</style><linearGradient id="linear-gradient" x1="-43.55" y1="20.35" x2="-45.11" y2="19.45" gradientTransform="translate(221.22 -78.06) scale(4.74)" gradientUnits="userSpaceOnUse"><stop offset="0.18" stop-color="#0052cc"/><stop offset="1" stop-color="#2684ff"/></linearGradient><linearGradient id="linear-gradient-2" x1="208.27" y1="-1631.04" x2="206.7" y2="-1631.94" gradientTransform="translate(992.01 -7725.17) rotate(180) scale(4.74)" xlink:href="#linear-gradient"/></defs><rect class="cls-1" width="19" height="24"/><circle class="cls-2" cx="9.5" cy="12" r="8.9"/><path class="cls-3" d="M4,15c-.1.2-.3.4-.4.6a.44.44,0,0,0,.1.5l2.5,1.5c.2.1.4.1.5-.1h0l.4-.6c1-1.6,2-1.4,3.7-.6l2.4,1.2a.37.37,0,0,0,.5-.2h0l1.2-2.6a.37.37,0,0,0-.2-.5c-.5-.2-1.5-.7-2.5-1.2C9,11.4,6.1,11.5,4,15Z"/><path class="cls-4" d="M15,9c.1-.2.3-.4.4-.6s.1-.4-.1-.5L12.8,6.4c-.2-.1-.4-.1-.5.1h0a2.09,2.09,0,0,1-.4.6C11,8.7,10,8.5,8.2,7.7L5.8,6.5a.37.37,0,0,0-.5.2h0L4.1,9.4a.27.27,0,0,0,.2.4c.5.2,1.5.7,2.5,1.2,3.3,1.6,6.1,1.5,8.2-2Z"/></svg>