<svg id="Layer_1" data-name="Layer 1" xmlns="http://www.w3.org/2000/svg" viewBox="0 0 19 24"><defs><style>.cls-1,.cls-2{fill:none;}.cls-2{stroke:#e6e7e8;stroke-miterlimit:10;stroke-width:0.15px;}.cls-3{fill:#364548;}.cls-10,.cls-11,.cls-3,.cls-4,.cls-5,.cls-6,.cls-7,.cls-8,.cls-9{fill-rule:evenodd;}.cls-4{fill:#22a0c8;}.cls-5{fill:#37b1d9;}.cls-6{fill:#1b81a5;}.cls-7{fill:#1d91b4;}.cls-8{fill:#23a3c2;}.cls-9{fill:#34bbde;}.cls-10{fill:#d3ecec;}.cls-11{fill:#bdd9d7;}</style></defs><rect class="cls-1" width="19" height="24"/><circle class="cls-2" cx="9.5" cy="12" r="8.9"/><path class="cls-3" d="M10.8,10.2h1.5v1.5h.8a3,3,0,0,0,1-.2c.2-.1.4-.1.5-.2a1.69,1.69,0,0,1-.3-1,1.79,1.79,0,0,1,.4-1.4l.2-.2.1.2a2.37,2.37,0,0,1,.9,1.5,2,2,0,0,1,1.7.2l.2.1-.1.2a2.09,2.09,0,0,1-2.2,1A7.62,7.62,0,0,1,8,16.7a4.78,4.78,0,0,1-4.3-2.2h0l-.1-.3A4.09,4.09,0,0,1,3.3,12v-.2H4.6V10.3H6V8.8H9V7.3h1.8v2.9"/><path class="cls-4" d="M15.7,10.8a2.13,2.13,0,0,0-.8-1.7,1.83,1.83,0,0,0,.2,2.3,3.29,3.29,0,0,1-1.9.6H3.5a4.13,4.13,0,0,0,.4,2.2l.1.3c.1.1.1.2.2.3H5.3a8.75,8.75,0,0,0,1.6-.2c.1,0,.1,0,.1.1H7c0,.1,0,.1-.1.1l-.2.1h0a3.08,3.08,0,0,1-1,.1H4.5a4.59,4.59,0,0,0,3.6,1.4,7.45,7.45,0,0,0,7.4-4.8,1.89,1.89,0,0,0,2.1-.9,2.45,2.45,0,0,0-1.9.1"/><path class="cls-5" d="M15.7,10.8a2.13,2.13,0,0,0-.8-1.7,1.83,1.83,0,0,0,.2,2.3,3.29,3.29,0,0,1-1.9.6H4a3.06,3.06,0,0,0,1.3,2.8h0a8.75,8.75,0,0,0,1.6-.2c.1,0,.1,0,.1.1H7c0,.1,0,.1-.1.1l-.2.1h0a3.4,3.4,0,0,1-1,.1h0a5.66,5.66,0,0,0,4.6-.1,13.65,13.65,0,0,0,5.4-4.1h0"/><path class="cls-6" d="M3.5,13a5.64,5.64,0,0,0,.4,1.2l.1.3c.1.1.1.2.2.3H5.3a8.75,8.75,0,0,0,1.6-.2c.1,0,.1,0,.1.1H7c0,.1,0,.1-.1.1l-.2.1h0a3.4,3.4,0,0,1-1,.1H4.3a4.74,4.74,0,0,0,3.6,1.4,7.66,7.66,0,0,0,6.8-3.5L3.5,13"/><path class="cls-7" d="M4.1,13a2.79,2.79,0,0,0,1.2,1.8,8.75,8.75,0,0,0,1.6-.2c.1,0,.1,0,.1.1H7c0,.1,0,.1-.1.1l-.2.1h0a3.4,3.4,0,0,1-1,.1,5.35,5.35,0,0,0,4.6-.2,12.89,12.89,0,0,0,3.2-1.9H4.1"/><path class="cls-8" d="M4.8,10.5H6.1v1.3H4.8Zm.1.1H5v1.1H4.9Zm.2,0h.1v1.1H5.1Zm.2,0h.1v1.1H5.3Zm.2,0h.1v1.1H5.5Zm.2,0h.1v1.1H5.7Zm.2,0H6v1.1H5.9ZM6.3,9H7.6v1.3H6.3Zm.1.1h.1v1.1H6.4Zm.2,0h.1v1.1H6.6Zm.2,0h.1v1.1H6.8Zm.2,0h.1v1.1H7Zm.2,0h.1v1.1H7.2Zm.1,0h.1v1.1h0Z"/><path class="cls-9" d="M6.3,10.5H7.6v1.3H6.3Zm.1.1h.1v1.1H6.4Zm.2,0h.1v1.1H6.6Zm.2,0h.1v1.1H6.8Zm.2,0h.1v1.1H7Zm.2,0h.1v1.1H7.2Zm.1,0h.1v1.1h0Z"/><path class="cls-8" d="M7.8,10.5H9.1v1.3H7.8Zm.1.1H8v1.1H7.9Zm.2,0h.1v1.1H8.1Zm.2,0h.1v1.1H8.3Zm.2,0h.1v1.1H8.5Zm.2,0h.1v1.1H8.7Zm.1,0H9v1.1H8.8Z"/><path class="cls-9" d="M7.8,9H9.1v1.3H7.8Zm.1.1H8v1.1H7.9Zm.2,0h.1v1.1H8.1Zm.2,0h.1v1.1H8.3Zm.2,0h.1v1.1H8.5Zm.2,0h.1v1.1H8.7Zm.1,0H9v1.1H8.8Zm.5,1.4h1.3v1.3H9.3Zm.1.1h.1v1.1H9.4Zm.2,0h0l.1,1.1H9.6Zm.2,0h.1v1.1H9.8Zm.2,0h.1v1.1H10Zm.2,0h.1v1.1h-.1Zm.1,0h.1v1.1h-.1Z"/><path class="cls-8" d="M9.3,9h1.3v1.3H9.3Zm.1.1h.1v1.1H9.4Zm.2,0h0l.1,1.1H9.6Zm.2,0h.1v1.1H9.8Zm.2,0h.1v1.1H10Zm.2,0h.1v1.1h-.1Zm.1,0h.1v1.1h-.1Z"/><path class="cls-9" d="M9.3,7.5h1.3V8.8H9.3Zm.1.1h.1V8.7H9.4V7.6Zm.2,0h0l.1,1.1H9.6V7.6Zm.2,0h.1V8.7H9.8Zm.2,0h.1V8.7H10Zm.2,0h.1V8.7h-.1Zm.1,0h.1V8.7h-.1Z"/><path class="cls-8" d="M10.8,10.5h1.3v1.3H10.8Zm.1.1H11v1.1h-.1Zm.2,0h.1v1.1h-.1Zm.2,0h.1v1.1h-.1Zm.2,0h.1v1.1h-.1Zm.2,0h.1v1.1h-.1Zm.1,0h.1v1.1h-.1Z"/><path class="cls-10" d="M7.5,13.9a.4.4,0,1,1,0,.8h0a.4.4,0,0,1,0-.8"/><path class="cls-3" d="M7.5,14h0a.31.31,0,0,0,.1.2s.1.1.1,0h0a.22.22,0,1,1-.4.2.19.19,0,0,1,.1-.3c0-.1,0-.1.1-.1h0m-6.4-.8H17.8c-.4-.1-1.1-.2-1-.7a2.45,2.45,0,0,1-2.7.2c-.4.6-3.1.4-3.2-.1a2.26,2.26,0,0,1-2.9,0c-.2.5-2.8.7-3.2.1a2.28,2.28,0,0,1-2.7-.2c.2.4-.6.6-1,.7"/><path class="cls-11" d="M8.4,16.5a3.75,3.75,0,0,1-1.7-1.6,3.75,3.75,0,0,1-1.1.1H4.3A4.72,4.72,0,0,0,8,16.4l.4.1"/><path class="cls-10" d="M7.1,15.4l-.3-.6a2.54,2.54,0,0,1-1.2.2,2.82,2.82,0,0,0,1.5.4"/></svg>