<svg id="Layer_1" data-name="Layer 1" xmlns="http://www.w3.org/2000/svg" viewBox="0 0 19 24"><defs><style>.cls-1{fill:#fff;stroke:#e6e7e8;stroke-miterlimit:10;stroke-width:0.15px;}.cls-2{fill:#ea4335;}.cls-3{fill:#4285f4;}.cls-4{fill:#34a853;}.cls-5{fill:#fbbc05;}.cls-6{fill:none;}</style></defs><circle class="cls-1" cx="9.5" cy="12" r="8.4"/><path class="cls-2" d="M11.1,9.8h.4l1-1,.1-.4A4.54,4.54,0,0,0,6,8.8a4.35,4.35,0,0,0-1,1.9c.1,0,.2-.1.4,0l2.1-.3s.1-.2.2-.2a2.39,2.39,0,0,1,3.4-.4Z"/><path class="cls-3" d="M14,10.6a4.25,4.25,0,0,0-1.4-2.3L11.1,9.8a2.81,2.81,0,0,1,1,2.1v.3a1.4,1.4,0,0,1,1.4,1.2,1.32,1.32,0,0,1-1.2,1.4H9.5l-.3.2v1.6l.3.3h2.6a3.35,3.35,0,0,0,3.4-3.3,3.69,3.69,0,0,0-1.5-3Z"/><path class="cls-4" d="M6.9,16.8H9.5V14.7H6.9a.75.75,0,0,1-.5-.1l-.4.1-1,1-.1.4a2.72,2.72,0,0,0,2,.7Z"/><path class="cls-5" d="M6.9,10a3.37,3.37,0,0,0-3.4,3.4,3.68,3.68,0,0,0,1.3,2.7l1.5-1.5a1.23,1.23,0,0,1-.6-1.7,1.32,1.32,0,0,1,1.7-.6,1.17,1.17,0,0,1,.6.6l1.5-1.5A3.14,3.14,0,0,0,6.9,10Z"/><rect class="cls-6" width="19" height="24"/></svg>