<svg id="Layer_1" data-name="Layer 1" xmlns="http://www.w3.org/2000/svg" viewBox="0 0 19 24.1"><defs><style>.cls-1,.cls-2{fill:#fff;}.cls-2{stroke:#e6e7e8;stroke-miterlimit:10;stroke-width:0.15px;}</style></defs><rect class="cls-1" width="19" height="24.1"/><circle class="cls-2" cx="9.5" cy="12" r="8.9"/><path d="M1.1,12A8.57,8.57,0,0,1,3.6,6a8.39,8.39,0,0,1,6-2.5,8.57,8.57,0,0,1,6,2.5,8.39,8.39,0,0,1,2.5,6,8.57,8.57,0,0,1-2.5,6,8.39,8.39,0,0,1-6,2.5,8.57,8.57,0,0,1-6-2.5A7.8,7.8,0,0,1,1.1,12ZM2,12A7.51,7.51,0,1,0,4.2,6.7,7.49,7.49,0,0,0,2,12Zm2.9,1.3v-.1h0a.37.37,0,0,1,.3-.1c.1,0,.2,0,.2.1a1,1,0,0,1,.5.4c.1.2.3.3.5.5a1.09,1.09,0,0,0,1.5.1c.1-.2.1-.3.2-.4s.2-.2.3-.2.2-.1.4-.2a4.67,4.67,0,0,1-1.7-.3,3.59,3.59,0,0,1-1-.7,2,2,0,0,1-.6-1.5,4.88,4.88,0,0,1,.1-1.7,4.05,4.05,0,0,1,.5-.9,2.82,2.82,0,0,1,.2-1.8,3.41,3.41,0,0,1,1.9.7,6.16,6.16,0,0,1,3.3,0,4.35,4.35,0,0,1,.7-.4,2.66,2.66,0,0,1,1.2-.3c.1.3.1.5.2.8v.9a3.18,3.18,0,0,1,.8,2,3.53,3.53,0,0,1-.4,1.7A2.54,2.54,0,0,1,12.8,13a4.15,4.15,0,0,1-1.6.3,3,3,0,0,1,.7.5c.2.2.2.5.3.7v2c.1.1.1.2.2.3l.2.2a.1.1,0,0,1,.1.1h0c0,.1-.1.1-.3.1a1.22,1.22,0,0,1-.9-.4c-.1-.1-.1-.2-.1-.4V14.9c0-.1,0-.3-.1-.3a.37.37,0,0,0-.3-.1v2a1.7,1.7,0,0,0,.1.7c.1.1.1.2.2.3H11a.82.82,0,0,1-.6-.4,1.85,1.85,0,0,1-.2-.7v-2H9.7v2a1.45,1.45,0,0,1-.2.7,1,1,0,0,1-.8.5c-.1,0-.1,0-.1-.1s.1-.2.2-.3.1-.2.1-.3.1-.3,0-.5v-2c-.2.1-.4.3-.3.5v1.5a.6.6,0,0,1-.1.4.91.91,0,0,1-.8.4.37.37,0,0,1-.3-.1V17l.1-.1.1-.1c.1-.1.2-.2.2-.3a.85.85,0,0,0,0-.7v-.7a1.75,1.75,0,0,1-1.7-.3,3,3,0,0,1-.5-.7,5,5,0,0,0-.7-.8Z"/></svg>