<svg id="Layer_1" data-name="Layer 1" xmlns="http://www.w3.org/2000/svg" viewBox="0 0 19 24"><defs><style>.cls-1,.cls-2{fill:none;}.cls-2{stroke:#e6e7e8;stroke-miterlimit:10;stroke-width:0.15px;}.cls-3{fill:#e24329;}.cls-4{fill:#fc6d26;}.cls-5{fill:#fca326;}</style></defs><rect class="cls-1" width="19" height="24"/><circle class="cls-2" cx="9.5" cy="12" r="9.1"/><g id="logo"><path id="Fill-14" class="cls-3" d="M9.5,17.9l2.3-7.2H7.2Z"/><path id="Fill-16" class="cls-4" d="M9.5,17.9,7.2,10.7H3.9Z"/><path id="Fill-18" class="cls-5" d="M3.9,10.7l-.7,2.2a.37.37,0,0,0,.2.5l6.1,4.5Z"/><path id="Fill-20" class="cls-3" d="M3.9,10.7H7.2L5.7,6.3c0-.1-.2-.2-.3-.2s-.1.1-.2.2Z"/><path id="Fill-21" class="cls-4" d="M9.5,17.9l2.3-7.2h3.3Z"/><path id="Fill-22" class="cls-5" d="M15.1,10.7l.7,2.2a.37.37,0,0,1-.2.5L9.5,17.9Z"/><path id="Fill-23" class="cls-3" d="M15.1,10.7H11.8l1.4-4.3c0-.1.2-.2.3-.2s.1.1.2.2Z"/></g></svg>