<svg id="Layer_1" data-name="Layer 1" xmlns="http://www.w3.org/2000/svg" viewBox="0 0 19 24"><defs><style>.cls-1{fill:none;}.cls-2{fill:#fff;stroke:#e6e7e8;stroke-miterlimit:10;stroke-width:0.15px;}.cls-3{fill:#ea4335;}.cls-4{fill:#4285f4;}.cls-5{fill:#34a853;}.cls-6{fill:#fbbc05;}</style></defs><rect class="cls-1" width="19" height="24"/><circle class="cls-2" cx="9.5" cy="12" r="8.6"/><path class="cls-3" d="M11.3,9.6h.4l1.2-1.2V7.9a5.24,5.24,0,0,0-7.4.5,5.64,5.64,0,0,0-1.1,2,.3.3,0,0,1,.4,0L7.1,10s.1-.2.2-.2a2.94,2.94,0,0,1,4-.2Z"/><path class="cls-4" d="M14.6,10.4A5.44,5.44,0,0,0,13,7.8L11.3,9.4a3,3,0,0,1,1.1,2.3V12a1.45,1.45,0,1,1,.1,2.9h-3l-.3.3V17l.3.3h2.9a3.8,3.8,0,0,0,3.8-3.8,4.14,4.14,0,0,0-1.6-3.1Z"/><path class="cls-5" d="M6.5,17.4H9.4V15H6.5a1.27,1.27,0,0,1-.6-.1l-.4.1L4.3,16.2l-.1.4a4,4,0,0,0,2.3.8Z"/><path class="cls-6" d="M6.5,9.8a3.8,3.8,0,0,0-3.8,3.8,3.84,3.84,0,0,0,1.5,3L6,14.9a1.46,1.46,0,0,1,1.1-2.7,1.55,1.55,0,0,1,.8.8l1.7-1.7A4,4,0,0,0,6.5,9.8Z"/></svg>