<svg id="Layer_1" data-name="Layer 1" xmlns="http://www.w3.org/2000/svg" viewBox="0 0 19 24"><defs><style>.cls-1,.cls-15{fill:none;}.cls-1{stroke:#e6e7e8;stroke-miterlimit:10;stroke-width:0.15px;}.cls-2{fill:#d33833;}.cls-3{fill:#ef3d3a;}.cls-4{fill:#231f20;}.cls-5{fill:#f0d6b7;}.cls-6{fill:#335061;}.cls-7{fill:#6d6b6d;}.cls-8{fill:#dcd9d8;}.cls-9{fill:#f7e4cd;}.cls-10{fill:#49728b;}.cls-11{fill:#fff;}.cls-12{stroke:#d33833;stroke-width:2px;}.cls-13{fill:#81b0c4;}.cls-14{fill:#1d1919;}</style></defs><circle class="cls-1" cx="9.2" cy="11.8" r="8.7"/><path class="cls-2" d="M14.2,11.6a5,5,0,1,1-10,0,5,5,0,1,1,10,0"/><path class="cls-3" d="M4.5,12.8S4.1,7.5,9,7.4l-.3-.6L6,7.7l-.7.9L4.6,9.9l-.4,1.5.1,1"/><path class="cls-4" d="M5.8,8.1a5.27,5.27,0,0,0-1.4,3.5h0a4.83,4.83,0,0,0,1.4,3.5h0a4.76,4.76,0,0,0,3.4,1.4h0a4.76,4.76,0,0,0,3.4-1.4h0A4.83,4.83,0,0,0,14,11.6h0a4.83,4.83,0,0,0-1.4-3.5h0A4.76,4.76,0,0,0,9.2,6.7h0A4.76,4.76,0,0,0,5.8,8.1Zm-.2,7.2a5.39,5.39,0,0,1-1.5-3.7h0A5.58,5.58,0,0,1,5.6,7.9h0A5.15,5.15,0,0,1,9.2,6.4h0a5.15,5.15,0,0,1,3.6,1.5h0a5.39,5.39,0,0,1,1.5,3.7h0a5.58,5.58,0,0,1-1.5,3.7h0a5.15,5.15,0,0,1-3.6,1.5h0a5.15,5.15,0,0,1-3.6-1.5Z"/><path class="cls-5" d="M11.3,11.6l-.8.1-1,.1H8.2l-.5-.2-.4-.5-.3-1L6.9,10l-.5-.1-.2-.5L6,8.8l.2-.5.5-.2.4.2.2.4h.2l.1-.1-.1-.5V7.6l.1-.8V6.4l.3-.6.6-.4L9.6,5l1.2.2,1,.7.5.8.3.5.1,1.4-.2,1.2-.4,1-.4.6"/><path class="cls-6" d="M10.7,14.9,8,15v.5L8.2,17l-.1.1-1.9-.6-.1-.2-.2-2.1-.4-1.3-.1-.3,1.5-1,.5-.2.4.5.4.3.4.1.2.1.2,1,.2.2.4-.2-.4.6,1.6.8-.1.1"/><path class="cls-7" d="M6.2,8.3l.5-.2.4.2.2.4h.2l.1-.2L7.4,8l.1-1V6.4L7.8,6l.7-.6-.2-.3-1,.5L6.9,6l-.3.5L6.2,7l-.1.6.1.7"/><path class="cls-8" d="M7,6.5a2.07,2.07,0,0,1,1.4-1c1.1-.3.1-.2.1-.2l-1.3.4-.5.5-.2.3H7"/><path class="cls-8" d="M6.4,8.2A1.14,1.14,0,0,1,7.5,6.7V6.4l-1,.2-.3,1,.1.6h.1"/><path class="cls-9" d="M7,9.9l.2-.2a.1.1,0,0,1,.1.1,3.13,3.13,0,0,0,.9,2c.1.1-.6-.1-.6-.1L7,10.8"/><path class="cls-9" d="M10.5,9.6s0-.6.2-.5a.2.2,0,0,1,.2.2s-.4.2-.4.3"/><path class="cls-9" d="M12.1,7.5s-.3.1-.3.3.3.1.4,0"/><path class="cls-9" d="M9.8,7.5s-.4.1-.4.3.4.2.6.1"/><path class="cls-9" d="M7.2,8.7s-.7-.4-.8,0a1.1,1.1,0,0,0,.1,1.1H6.3l-.2-.6L6,8.6l.4-.5h.5l.3.2v.4"/><path class="cls-9" d="M7.5,7.5a2.55,2.55,0,0,1,1.9-2,2.36,2.36,0,0,1,2.3.4s-1.2-1.4-2.3-1-2,1.2-1.9,1.7c.1.9,0,.9,0,.9"/><path class="cls-9" d="M11.9,6.1a.62.62,0,0,0-.6.5v.2s.4-.5.7-.2"/><path class="cls-9" d="M9.5,6.7s-.1-.8-.7-.3c-.4.3-.4.7-.3.8s.1.2.1.1,0-.4.2-.5.6-.2.7-.1"/><path class="cls-10" d="M7.8,11.9,6,12.6s.7,2.9.4,3.8l-.3-.1V15.2l-.5-2.1-.2-.6,1.9-1.2.5.6"/><path class="cls-10" d="M7.9,13.5l.3.3v1.1H7.9V13.6"/><path class="cls-10" d="M7.9,15.1H7l.2.2.6.1"/><path class="cls-6" d="M10.9,14.9h.7l.2,1.7-.8.1-.1-1.8"/><path class="cls-6" d="M11,14.9l1.1-.1s.4-1.1.4-1.2.4-1.6.4-1.6l-.9-.9-.2-.2-.5.5v1.8L11,14.9"/><path class="cls-10" d="M11.5,14.8l-.7.1.1.5c.2.1.7-.2.7-.2"/><path class="cls-10" d="M11.5,11.5l1.3,1V12l-1-.9-.3.4"/><path class="cls-11" d="M8.6,18.6,8.2,17,8,15.9V15l1.8-.1h1.1l-.1,2,.2,1.5v.3l-1.4.1-1-.2"/><path class="cls-8" d="M10.6,14.9a16.12,16.12,0,0,0,.2,3.4,3.59,3.59,0,0,1-1.4.5l1.6-.1.2-.1L11,15.5l-.1-.7"/><path class="cls-11" d="M11.8,16.5l.7-.2,1.4-.1.2-.6-.4-1.1-.4-.1-.6.2-.6.3-.3-.1-.2.1"/><path class="cls-8" d="M11.7,16.1a4.17,4.17,0,0,1,.6-.2l-.2-1,.2-.1s.2,1,.2,1.1l1.2.1a2.23,2.23,0,0,0,.2-.9l.2.6V16l-.3.5-.3.1h-.6l-.2-.2-.7-.1-.2.1"/><path class="cls-11" d="M11,14.7l-.4-1.1-.4-.6s.1-.3.2-.3h.4l.4.2v.7L11,14.7"/><path class="cls-8" d="M11.1,14.4a7.26,7.26,0,0,1-.5-1.2s.1-.2.2-.2a1.47,1.47,0,0,1,.4.2v-.4l-.6-.1-.4.1.7,1.7h.2"/><path class="cls-11" d="M8.8,11.9l-.5-.1-.5-.2v.2l.2.3.8.3"/><path class="cls-8" d="M7.9,12a4.54,4.54,0,0,0,.8.2v.2l-.5-.1L7.9,12h0"/><path class="cls-2" d="M11.8,12.9a2.77,2.77,0,0,1-.9-.1v-.3a.37.37,0,0,1,.3-.1c-.1,0-.2-.1-.3,0,0-.1,0-.1-.1-.2.2-.1.6-.5.8-.3a1.07,1.07,0,0,1,.2.6v.4"/><path class="cls-12" d="M11.8,12.9a2.77,2.77,0,0,1-.9-.1v-.3a.37.37,0,0,1,.3-.1c-.1,0-.2-.1-.3,0,0-.1,0-.1-.1-.2.2-.1.6-.5.8-.3a1.07,1.07,0,0,1,.2.6v.4Z"/><path class="cls-2" d="M10.2,12.3h0c-.1.1-.3.1-.4.2.2,0,.3,0,.4.1v.2c-.2.1-.4.3-.6.4a1.42,1.42,0,0,1-.6.2v-.1a1.42,1.42,0,0,1-.2-.6c0-.3,0-.8.3-.7a1.14,1.14,0,0,1,.7.3c.2-.1.2,0,.4,0"/><path class="cls-12" d="M10.2,12.3h0c-.1.1-.3.1-.4.2.2,0,.3,0,.4.1v.2c-.2.1-.4.3-.6.4a1.42,1.42,0,0,1-.6.2v-.1a1.42,1.42,0,0,1-.2-.6c0-.3,0-.8.3-.7a1.14,1.14,0,0,1,.7.3c.2-.1.2,0,.4,0Z"/><path class="cls-2" d="M10.4,12.7c0-.2-.1-.2,0-.3.4-.3.5.4,0,.3"/><path class="cls-12" d="M10.4,12.7c0-.2-.1-.2,0-.3.4-.3.5.4,0,.3Z"/><path class="cls-3" d="M11,12.8s-.1-.2,0-.2.2,0,.2-.1,0-.2,0-.3.1-.1.2-.2.4-.1.4,0l-.1-.3-.2-.1-.7.4v.6"/><path class="cls-3" d="M9,13.4a2.77,2.77,0,0,0-.1-.9c0-.4.1-.4.5-.4a2.27,2.27,0,0,1,.4.1c.1.2-.2.2.1.3s.7-.1.6-.4c-.1-.1-.3,0-.4-.1-.1.1-.2,0-.4,0a1.13,1.13,0,0,0-.8-.1c-.5.3,0,1.2.1,1.5"/><path class="cls-4" d="M9.5,6.7c-.5-.1-.7.3-.9.6-.1,0-.1-.2,0-.3,0-.3.4-.6.7-.6s.3.2.2.3"/><path class="cls-4" d="M12,7.3h0a2.51,2.51,0,0,0,.4.7c-.1.2-.7.4-.7,0,.1-.1.4,0,.5-.1a.85.85,0,0,1-.2-.6"/><path class="cls-4" d="M9.8,7.3c.1.2.1.4.3.6s.2.2.1.3l-.2.2c-.2.1-.8,0-.6-.3.2,0,.5.1.6,0a1.08,1.08,0,0,1-.2-.8"/><path class="cls-4" d="M11.9,9.4a2.12,2.12,0,0,1-1.4.4c-.1-.1-.2-.4-.1-.5.1.1,0,.3.2.4s.7-.2,1-.3c.2-.3,0-.4-.2-.5a1.61,1.61,0,0,1-.6-1.3c.2-.1.2.1.2.1a3.83,3.83,0,0,0,.8,1.1L12,9c.1.1-.1.3-.1.4"/><path class="cls-4" d="M7.1,9.1c-.1,0-.2-.3-.3-.3s-.2.4-.2.6a.85.85,0,0,1,0-.7c-.1-.1-.2.1-.3.1.1-.6.9-.3.8.3"/><path class="cls-4" d="M12.2,9.6c-.2.3-.4.7-.9.7V10a1.8,1.8,0,0,0,.9-.4"/><path class="cls-4" d="M9.8,9.9a3,3,0,0,0,1.4.2v.3c-.6,0-1.3-.2-1.4-.5"/><path class="cls-4" d="M9.7,10.2c.2.6,1,.5,1.6.5a.22.22,0,0,1-.2.2,2,2,0,0,1-1.1,0c-.2-.1-.3-.3-.4-.4.1-.2-.2-.3.1-.3"/><path class="cls-13" d="M11.9,13.3c-.3.4-.5.9-.8,1.3a6.8,6.8,0,0,0,.2-1.5c.3-.2.5,0,.6.2"/><path class="cls-4" d="M13.3,14.9c-.3.1-.5.3-.8.3a1.14,1.14,0,0,1,.8-.3"/><path class="cls-4" d="M13.5,15.3a2.13,2.13,0,0,1-.8,0,1.07,1.07,0,0,1,.8,0"/><path class="cls-4" d="M13.5,15.7h-.9a1,1,0,0,1,.9,0"/><path class="cls-8" d="M11.4,16.8c0,.3.2.7.2,1-.1,0-.2.1-.4.1a4.05,4.05,0,0,1,0-1.1h.2"/><path class="cls-5" d="M11,11.8a1.38,1.38,0,0,1-.4.3,1,1,0,0,1-.7-.2h0a1.38,1.38,0,0,0,1.1-.1"/><path class="cls-13" d="M9.4,13.9a1.39,1.39,0,0,1,.7-.8,6.11,6.11,0,0,1,.7,1.4,3.51,3.51,0,0,1-1.4-.6"/><path class="cls-4" d="M11.1,16.8v1.1c.2,0,.3,0,.4-.1a3,3,0,0,0-.2-1ZM8,15.1a12.13,12.13,0,0,0,.7,3.3,3.93,3.93,0,0,0,2.4,0,12.75,12.75,0,0,1-.1-2c-.1-.5,0-1-.1-1.5a26.42,26.42,0,0,0-2.9.2Zm3-.1a7.57,7.57,0,0,0,.1,1.5.9.9,0,0,0,.5-.1c-.1-.5-.1-1.1-.2-1.5a.6.6,0,0,1-.4.1Zm1,0h-.3a5.85,5.85,0,0,0,.2,1.3c.1,0,.2-.1.3-.1A2.34,2.34,0,0,0,12,15Zm1.5,1.4a.63.63,0,0,0,.4-.8c-.1-.2-.2-.7-.3-.9s-.3-.3-.5-.2-.8.2-1,.4c.1.3.1.8.2,1.2a4.05,4.05,0,0,1,1.1,0c-.2.1-.5.1-.6.2a1.7,1.7,0,0,0,.7.1Zm-2.7-1.8a6.11,6.11,0,0,0-.7-1.4,1.39,1.39,0,0,0-.7.8c.4.2.9.4,1.4.6Zm.5-1.6a6.8,6.8,0,0,1-.2,1.5,9.13,9.13,0,0,0,.8-1.3.56.56,0,0,0-.6-.2Zm-.6-.2c-.1,0-.2.1-.4.1l-.1.1c.3.4.5,1,.8,1.5.1-.5.1-1,.2-1.5-.2,0-.3-.1-.5-.2Zm-.3-.5v.3c.5.2.4-.5,0-.3Zm-.6-.1c-.2-.1-.5-.2-.7-.3s-.3.4-.3.7a1.07,1.07,0,0,0,.2.6c0,.1,0,.1.1.2a1.42,1.42,0,0,0,.6-.2c.2-.1.4-.3.6-.4v-.2c-.1-.1-.2-.1-.4-.1a.6.6,0,0,1,.4-.1v-.1c-.3,0-.3-.1-.5-.1ZM8,11.8c-.2.2.5.4.7.4,0-.1.1-.2,0-.3-.3,0-.6.1-.7-.1Zm2,.1h0c.2.2.3.2.6.2a1.38,1.38,0,0,1,.4-.3c-.3.1-.7.3-1,.1Zm1.8.6c0-.2-.1-.6-.2-.6s-.7.3-.8.3.1.1.1.2h.3a.37.37,0,0,0-.3.1v.3a2.48,2.48,0,0,0,.9.1v-.4ZM7.7,12c-.1,0-.4-.5-.4-.5a6.19,6.19,0,0,0-1.7,1.1,11,11,0,0,1,.6,3.7,4,4,0,0,0,1.9.7,11,11,0,0,1-.2-1.8c-.2-.1-.5,0-.7,0,0-.2.3-.1.3-.2s-.2-.1-.1-.3a.52.52,0,0,0,.4.2,4.05,4.05,0,0,0,0-1.1s0-.3.1-.2,0,.6,0,.8A1.27,1.27,0,0,0,8,15a17.85,17.85,0,0,1,2.3-.2c-.2-.1-.4-.1-.6-.3s-.5-.2-.6-.3.2-.3.2-.5c-.4.2-.5-.2-.5-.5a1.76,1.76,0,0,1-.1-.6,8.79,8.79,0,0,1-1-.6Zm3.8-.4c.5-.3.6.9.4,1.3,0,.1.1.2.2.3l-.9,1.5c.2-.1.5,0,.8-.1.1,0,.2-.3.2-.4a13.14,13.14,0,0,0,.5-1.5c0-.1.1-.3.1-.4s-.2-.3-.4-.4-.3-.4-.6-.5a1.44,1.44,0,0,0-.3.2Zm-5-4.7c-.3.3-.2.8-.2,1.2a.62.62,0,0,1,1,.5c.2,0,.1-.3,0-.4,0-.6.3-1.2.1-1.7a1.27,1.27,0,0,0-.9.4ZM8.3,5.3A2.49,2.49,0,0,0,6.8,6.4c.2,0,.3-.1.5-.1h.2c.2,0,.3-.4.4-.5l.3-.3c.1,0,.2,0,.1-.2Zm2.9.2A2.87,2.87,0,0,0,9,5.2c-.5.3-1.2.7-1.4,1.2.2.5-.1,1-.1,1.5,0,.3.1.5.1.8,0,.1-.3.2-.4.1s-.2-.5-.4-.5a.67.67,0,0,0-.7.6c0,.4.3,1,.8,1,.2,0,.2-.2.4-.2.1.2-.2.3-.2.4v.3a10.37,10.37,0,0,0,.4,1,1.46,1.46,0,0,0,1.2.4c.1-.2.4-.2.6-.1a1.34,1.34,0,0,1-.7-.6,2.18,2.18,0,0,1-.5-.8,2.73,2.73,0,0,0,1.5,1.3,2.09,2.09,0,0,0,1.7-.4,1,1,0,0,0,.4-.5A3.63,3.63,0,0,0,12.5,8a2,2,0,0,0-.2-1.1.66.66,0,0,0-.9-.3c-.1-.3.2-.4.6-.3a2,2,0,0,0-.8-.8Zm1.1,9c.5-.2,1.3-.6,1.6,0,.1.2.2.6.3.8s-.1,1-.4,1.1a1.7,1.7,0,0,1-1,0,.35.35,0,0,1-.1-.2,1.48,1.48,0,0,0-.7.1c0,.2-.1.2-.2.3-.1.4.2.8.1,1.1s-.3.3-.5.3v.3c0,.2-.3.3-.5.3a5.86,5.86,0,0,1-2.3-.1c-.2-.4-.3-1-.5-1.5-.6.1-1.1-.3-1.6-.5-.2-.1-.4-.1-.5-.3s0-.4-.1-.6a11,11,0,0,0-.2-1.8c-.1-.3-.2-.5-.3-.8a6.89,6.89,0,0,1-.3-.8c-.1-.4.3-.4.5-.5a8.79,8.79,0,0,1,1-.6c.1-.1.4-.2.5-.3.1.2-.1,0-.2-.1a.9.9,0,0,1-.1-.5,1,1,0,0,1-.7-.4,1.7,1.7,0,0,1-.2-1.4A.35.35,0,0,0,6,8.2V7.8c0-.6.1-1.1.5-1.3.2-.7.8-.9,1.3-1.2A1.08,1.08,0,0,1,8.5,5a3.26,3.26,0,0,1,2.9.3,3.57,3.57,0,0,1,1,1.1,5.51,5.51,0,0,1,.1,3.6,1.42,1.42,0,0,1-.2.6,1.06,1.06,0,0,0-.2.5c0,.1.4.4.5.5s.5.4.5.5-.1.5-.1.7a12.2,12.2,0,0,0-.7,1.7Z"/><path class="cls-9" d="M9.3,10a.48.48,0,0,1,.4,0s-.2,0-.2.4H9.4c-.1,0-.2-.3-.1-.4"/><path class="cls-14" d="M10.9,13.2c0,.1,0,.1-.1.1s-.1,0-.1-.1,0-.1.1-.1a.1.1,0,0,1,.1.1"/><path class="cls-14" d="M11,13.7c0,.1,0,.1-.1.1s-.1,0-.1-.1,0-.1.1-.1a.1.1,0,0,1,.1.1"/><rect class="cls-15" width="19" height="24"/></svg>