<svg id="Layer_1" data-name="Layer 1" xmlns="http://www.w3.org/2000/svg" viewBox="0 0 19 24.1"><defs><style>.cls-1{fill:none;}.cls-2{fill:#fff;stroke:#e6e7e8;stroke-miterlimit:10;stroke-width:0.15px;}.cls-3{fill:#41bf47;}</style></defs><rect class="cls-1" width="19" height="24.1"/><circle class="cls-2" cx="9.5" cy="12" r="8.9"/><path class="cls-3" d="M5.53,12.33c-1.06.25-1.79.76-1.79,1.35,0,.36.28.69.75,1a1.22,1.22,0,0,1-.21-.69A2,2,0,0,1,5.53,12.33ZM16.7,14.61a1.34,1.34,0,0,0-.63-1,1.43,1.43,0,0,1,.06.36c0,1.1-1.53,2-3.71,2.42a5,5,0,0,0,.77,0C15.19,16.4,16.7,15.59,16.7,14.61ZM15.43,14c0-.4-.34-.77-.92-1.07a.78.78,0,0,1,.2.53c0,1-2.05,1.81-4.58,1.81s-4.61-.79-4.61-1.76a.65.65,0,0,1,.1-.36A1.14,1.14,0,0,0,5,14c0,1.05,2.35,1.9,5.25,1.9s5.25-.85,5.25-1.9Zm-2.29,0a7.34,7.34,0,0,1-5.78,0c-1.11-.69-.72-1.8-3.91-4.22-.41-.32.08-.65.4-.43s0,.26.65.89c1.27,1.27,1.27.13,1.46.57a7.55,7.55,0,0,0,1.35,1.82c.94.62,1.68.75,3.06-.18.88-.59.51.94,2.65-.17.78-.4.76-.13,1.54-1.26.33-.46,1,.35.25.46a1.49,1.49,0,0,0-1,.85c-.3.76-.18,1.3-.68,1.67ZM7.22,12.09a2,2,0,0,1-.65-.75.87.87,0,0,0,0-1C6.4,10,6.2,10.11,6,9.87s.09-.88.38-.39c1.06,1.84,1.76,1.08,2.63,1s1.57.35,1.8-.95c0-.2.24-.25.26.09s.16,1.21.61,1.27a1,1,0,0,0,1-.19c.1-.12.17-.1.22.2s.16.72.81.25c1.26-.93.93-1.26,1.45-1.54.29-.14.75.3.08.65-1,.48-1.05,1.07-1.65,1.45-1,.63-.7,0-2.34-.2-.62-.09-.82.61-1.26.4A2.38,2.38,0,0,0,7.22,12.09ZM10.74,8.7c0,.28.09.28.19.29s.23-.13.23-.28-.07-.24-.22-.24S10.74,8.56,10.74,8.7Zm4.91.49c.11.12.43,0,.5,0s.21-.34.11-.49-.31-.12-.52,0A.35.35,0,0,0,15.65,9.19Zm-.09,1.41q-.15.2,0,.3a.28.28,0,0,0,.35.06.2.2,0,0,0,0-.3l0,0a.21.21,0,0,0-.29-.08ZM5.52,9c.15,0,.21.2.34,0a.24.24,0,0,0,0-.32.38.38,0,0,0-.41,0,.2.2,0,0,0,0,.27ZM2.4,8.85c.28.18.46.43.67.2s.17-.21,0-.49a.54.54,0,0,0-.53-.22C2.35,8.42,2.19,8.72,2.4,8.85Zm2.53,1.26a.26.26,0,0,0,.33,0c.09,0,.08-.18,0-.31a.21.21,0,0,0-.3,0H5a.21.21,0,0,0-.2.22.22.22,0,0,0,.22.2H5Z"/></svg>