<svg id="Layer_1" data-name="Layer 1" xmlns="http://www.w3.org/2000/svg" xmlns:xlink="http://www.w3.org/1999/xlink" viewBox="0 0 19 24"><defs><style>.cls-1,.cls-2{fill:#fff;}.cls-2{stroke:#e6e7e8;stroke-miterlimit:10;stroke-width:0.15px;}.cls-3{fill:#2684ff;}.cls-4{fill:url(#linear-gradient);}.cls-5{fill:url(#linear-gradient-2);}</style><linearGradient id="linear-gradient" x1="-60.51" y1="102.59" x2="-60.51" y2="102.59" gradientTransform="matrix(1168.16, 0, 0, -1161.32, 70695.68, 119153.64)" gradientUnits="userSpaceOnUse"><stop offset="0.18" stop-color="#0052cc"/><stop offset="1" stop-color="#2684ff"/></linearGradient><linearGradient id="linear-gradient-2" x1="-60.06" y1="103.05" x2="-60.06" y2="103.05" gradientTransform="matrix(1168.17, 0, 0, -1161.32, 70164.1, 119688.91)" xlink:href="#linear-gradient"/></defs><rect class="cls-1" width="19" height="24"/><circle class="cls-2" cx="9.5" cy="12" r="8.9"/><path class="cls-3" d="M14.7,6.8h-6a2.69,2.69,0,0,0,2.7,2.7h1.1v1.1a2.69,2.69,0,0,0,2.7,2.7v-6a.47.47,0,0,0-.5-.5Z"/><path class="cls-4" d="M11.7,9.7h-6a2.69,2.69,0,0,0,2.7,2.7H9.5v1.1a2.69,2.69,0,0,0,2.7,2.7h0V10.3a.5.5,0,0,0-.5-.6Z"/><path class="cls-5" d="M8.8,12.7h-6a2.69,2.69,0,0,0,2.7,2.7H6.6v1.1a2.69,2.69,0,0,0,2.7,2.7V13.3C9.3,12.9,9.1,12.7,8.8,12.7Z"/></svg>