<svg id="Layer_1" data-name="Layer 1" xmlns="http://www.w3.org/2000/svg" viewBox="0 0 19 24.1"><defs><style>.cls-1{fill:#fff;}.cls-2{fill:none;stroke:#e6e7e8;stroke-miterlimit:10;stroke-width:0.15px;}.cls-3{fill:#326de6;}</style></defs><rect class="cls-1" width="19" height="24.1"/><circle class="cls-2" cx="9.5" cy="12" r="8.9"/><path class="cls-1" d="M9.5,5.3a.6.6,0,0,1,.4.1l4.8,2.3c.3.1.4.3.5.6l1.2,5.2a.78.78,0,0,1-.2.8l-3.3,4.1a.91.91,0,0,1-.7.3H6.8a.91.91,0,0,1-.7-.3L2.8,14.3a1.08,1.08,0,0,1-.2-.8L3.8,8.3c.1-.3.2-.5.5-.6L9.1,5.4a.6.6,0,0,1,.4-.1Zm0-.5a1.27,1.27,0,0,0-.6.1L4.1,7.3a1.11,1.11,0,0,0-.7.9L2.2,13.4a1.38,1.38,0,0,0,.3,1.2l3.3,4.1a1.23,1.23,0,0,0,1,.5h5.3a1.61,1.61,0,0,0,1.1-.5l3.3-4.1a1.31,1.31,0,0,0,.3-1.2L15.6,8.2a1.6,1.6,0,0,0-.7-.9L10.1,5A1.42,1.42,0,0,0,9.5,4.8Z"/><path class="cls-3" d="M6.8,18.9a1.49,1.49,0,0,1-.9-.4L2.6,14.4a1.16,1.16,0,0,1-.2-1L3.6,8.2a1.56,1.56,0,0,1,.6-.8L9,5.2a.91.91,0,0,1,1,0l4.8,2.3a1,1,0,0,1,.6.8l1.2,5.2a1.23,1.23,0,0,1-.2,1L13,18.6a1,1,0,0,1-.9.4l-5.3-.1Z"/><path class="cls-1" d="M14.3,13h-.4a.9.9,0,0,1-.5-.1l-.1-.1h0l-.1-.1a2.88,2.88,0,0,0-.1-1.3,4.33,4.33,0,0,0-.5-1.2l.1-.1h0V10c.1-.1.3-.2.4-.3h.1c.1,0,.1-.1.2-.1h0c.1-.1.2-.3.1-.4s-.1-.1-.2-.1-.1,0-.2.1h0l-.1.1-.1.1a1.38,1.38,0,0,1-.4.3h-.2l-.1.1c-.1-.1-.3-.2-.4-.4a5,5,0,0,0-2-.8V8.4h0l-.1-.1V7.8h0V7.4a.27.27,0,0,0-.3-.3c-.1,0-.2,0-.2.1s0,.1,0,.2v.4h0v.5a.1.1,0,0,1-.1.1h0v.1a.9.9,0,0,0-.5.1,3.62,3.62,0,0,0-1.8,1H6.5a1.38,1.38,0,0,0-.3-.4l-.1-.1L6,9H6a.35.35,0,0,1-.2-.1c-.1,0-.2,0-.2.1a.25.25,0,0,0-.1.4h0c.1,0,.1.1.2.1h.1a1.76,1.76,0,0,0,.5.4s.1.1,0,.1h0l.1.1v.1a3.12,3.12,0,0,0-.5,2.5H5.8l-.1.1c-.2,0-.3.1-.5.1H4.8c-.2,0-.3.2-.2.4s.2.2.3.2h.2c.1,0,.1,0,.2-.1h.1a.9.9,0,0,1,.5-.1h.2a4.39,4.39,0,0,0,1.2,1.8c.1.1.3.2.4.3l-.1.1h0v.2c-.1.2-.1.3-.2.4h0l-.1.1-.1.2h0c-.1.1,0,.3.1.4h.1c.1,0,.2-.1.3-.2h0c0-.1,0-.1.1-.2v-.1c0-.2.1-.3.2-.5l.1-.1h0l.1-.1a3,3,0,0,0,1.3.2,2,2,0,0,0,.8-.1c.2,0,.3-.1.5-.1l.1.1h0c.1,0,.1,0,.1.1s.1.3.2.5h0v.1c0,.1,0,.1.1.2h0c.1.1.2.2.3.2h.1c.1,0,.1-.1.1-.2v-.2h0a.1.1,0,0,0-.1-.1l-.1-.1h0a.76.76,0,0,1-.2-.4v-.2h0v-.1a3.92,3.92,0,0,0,1.7-2.1h.2c.2,0,.3.1.5.1h.1c.1,0,.1.1.2.1h.2c.1,0,.3-.1.3-.2s-.1-.3-.3-.4Zm-4.4-.4-.4.2-.4-.2L9,12.1l.3-.4h.5l.3.4-.2.5Zm2.5-1a3.08,3.08,0,0,1,.1,1L11,12.1c-.1,0-.2-.2-.2-.3a.1.1,0,0,1,.1-.1l1.2-1,.3.9Zm-.8-1.5-1.3.9a.19.19,0,0,1-.3-.1v-.1L9.9,9.3a3,3,0,0,1,1.7.8ZM8.8,9.3l.3-.1L9,10.8a.22.22,0,0,1-.2.2H8.7l-1.3-.9A2.85,2.85,0,0,1,8.8,9.3ZM7,10.7l1.1,1c.1.1.1.2,0,.4l-.1.1-1.5.4A3,3,0,0,1,7,10.7Zm-.3,2.6L8.2,13c.1,0,.2.1.3.2v.2l-.6,1.4a2.89,2.89,0,0,1-1.2-1.5Zm3.5,1.9c-.2,0-.4.1-.7.1a3.55,3.55,0,0,1-1-.2l.8-1.4a.37.37,0,0,1,.3-.1l.1.1.7,1.3C10.4,15.1,10.3,15.1,10.2,15.2ZM12,13.8a2,2,0,0,1-.9.9l-.6-1.4a.37.37,0,0,1,.1-.3h.1l1.5.3C12.2,13.5,12.1,13.6,12,13.8Z"/></svg>