<svg id="Layer_1" data-name="Layer 1" xmlns="http://www.w3.org/2000/svg" viewBox="0 0 19 24.1"><defs><style>.cls-1{fill:#fff;}.cls-2{fill:none;stroke:#e6e7e8;stroke-miterlimit:10;stroke-width:0.15px;}.cls-3{fill:#ff3d00;}</style></defs><rect class="cls-1" width="19" height="24.1"/><circle class="cls-2" cx="9.5" cy="12" r="8.5"/><ellipse class="cls-3" cx="9.5" cy="8.2" rx="4.1" ry="1.7"/><path class="cls-3" d="M9.6,15.5a11.09,11.09,0,0,0-3.5,1.2,1.28,1.28,0,0,1-.7-.9c0-1.3,2.2-1.8,4.3-2.3a12.07,12.07,0,0,0,4-1.4v1.1C13.6,14.5,11.6,15,9.6,15.5Z"/><path class="cls-3" d="M9.5,12.8a11.5,11.5,0,0,0-4.2,1.5V14c0-2.3,2.5-2.9,4.9-3.4,1.8-.4,2.6-.6,3.3-1.2v1.3C13.6,11.9,11.5,12.4,9.5,12.8Z"/><path class="cls-3" d="M13.6,14.7a10.68,10.68,0,0,1-3.9,1.4,13.93,13.93,0,0,0-2.9.9,8.5,8.5,0,0,0,2.7.4c2.4,0,4.1-.9,4.1-1.7Z"/></svg>