<svg id="Layer_1" data-name="Layer 1" xmlns="http://www.w3.org/2000/svg" viewBox="0 0 19 24"><defs><style>.cls-1{fill:none;}.cls-2{fill:#fff;stroke:#e6e7e8;stroke-miterlimit:10;stroke-width:0.15px;}.cls-3{fill:#0ede00;}.cls-3,.cls-4{fill-rule:evenodd;}.cls-4,.cls-5{fill:#012133;}</style></defs><rect class="cls-1" width="19" height="24"/><circle class="cls-2" cx="9.5" cy="12" r="8.9"/><polygon id="Path" class="cls-3" points="14.85 12.24 13.88 10.84 14.2 10.84 14.99 12 16.53 9.77 16.74 9.9 14.99 12.43 14.85 12.24"/><polygon id="Path-2" data-name="Path" class="cls-4" points="15.12 12.1 15.12 13.16 14.85 13.16 14.85 12.1 15.12 12.1"/><path id="Shape" class="cls-5" d="M2.26,12h0a1.19,1.19,0,1,1,2.37,0h0a1.18,1.18,0,0,1-1.19,1.2A1.16,1.16,0,0,1,2.26,12Zm2.1,0h0a.92.92,0,1,0-1.83,0h0a.93.93,0,0,0,.92,1A.92.92,0,0,0,4.36,12Z"/><polygon id="Path-3" data-name="Path" class="cls-4" points="7.81 10.84 9.5 10.84 9.5 11.08 8.07 11.08 8.07 11.87 9.35 11.87 9.35 12.11 8.07 12.11 8.07 12.92 9.51 12.92 9.51 13.16 7.81 13.16 7.81 10.84"/><polygon id="Path-4" data-name="Path" class="cls-4" points="10.52 11.09 9.74 11.09 9.74 10.85 11.57 10.85 11.57 11.09 10.79 11.09 10.79 13.16 10.52 13.16 10.52 11.09"/><path id="Shape-2" data-name="Shape" class="cls-5" d="M11.93,10.84h1a.93.93,0,0,1,.67.24.67.67,0,0,1,.18.45h0a.68.68,0,0,1-.64.67l.72.95h-.32l-.68-.9h-.67v.9h-.26Zm1,1.18c.35,0,.6-.17.6-.47h0c0-.28-.22-.45-.6-.45h-.72V12Z"/><polygon id="Path-5" data-name="Path" class="cls-4" points="5.15 14.1 4.96 14.23 3.93 12.87 4.13 12.74 5.15 14.1"/><polygon id="Path-6" data-name="Path" class="cls-4" points="7.02 10.84 6.17 12.11 5.32 10.84 5.06 10.84 5.06 13.2 5.31 13.57 5.31 11.29 6.16 12.52 6.17 12.52 7.02 11.28 7.02 13.16 7.29 13.16 7.29 10.84 7.02 10.84"/></svg>