<?xml version="1.0" encoding="utf-8"?>
<!-- Generator: Adobe Illustrator 25.2.0, SVG Export Plug-In . SVG Version: 6.00 Build 0)  -->
<svg version="1.1" id="Layer_1" xmlns="http://www.w3.org/2000/svg" xmlns:xlink="http://www.w3.org/1999/xlink" x="0px" y="0px"
	 viewBox="0 0 19 24" style="enable-background:new 0 0 19 24;" xml:space="preserve">
<style type="text/css">
	.st0{fill:none;}
	.st1{fill-rule:evenodd;clip-rule:evenodd;fill:#293E40;}
	.st2{fill:#FFFFFF;stroke:#E6E7E8;stroke-width:0.15;stroke-miterlimit:10;}
	.st3{fill-rule:evenodd;clip-rule:evenodd;fill:#81B5A1;}
	.st4{fill:#293E40;}
</style>
<rect class="st0" width="19" height="24"/>
<path class="st1" d="M7.6,10.7c0.2,0,0.3,0.1,0.3,0.3c0,0.2-0.1,0.3-0.3,0.3c-0.2,0-0.3-0.1-0.3-0.3C7.3,10.8,7.4,10.7,7.6,10.7"/>
<g>
	<rect x="0.4" y="9.5" class="st2" width="18.2" height="4.9"/>
	<g>
		<path class="st1" d="M5.1,11.1c-0.2,0-0.3,0.1-0.5,0.2v-0.1H4.2v1.6h0.4v-1c0.1-0.1,0.2-0.2,0.4-0.2c0.1,0,0.1,0,0.2,0v-0.4
			C5.2,11.2,5.2,11.1,5.1,11.1"/>
		<path class="st1" d="M1.3,12.3c0.1,0.1,0.3,0.2,0.4,0.2c0.1,0,0.2-0.1,0.2-0.1c0-0.3-0.8-0.2-0.8-0.7c0-0.3,0.3-0.5,0.6-0.5
			c0.2,0,0.4,0.1,0.6,0.2l-0.2,0.3c-0.1-0.1-0.2-0.1-0.3-0.1s-0.2,0.1-0.2,0.1c0,0.2,0.8,0.1,0.8,0.7c0,0.3-0.3,0.5-0.7,0.5
			c-0.2,0-0.5-0.1-0.7-0.2L1.3,12.3z"/>
		<path class="st1" d="M4,12c0-0.5-0.3-0.8-0.8-0.8c-0.5,0-0.8,0.4-0.8,0.9c0,0.5,0.4,0.9,0.9,0.9c0.3,0,0.5-0.1,0.7-0.3l-0.3-0.3
			c-0.1,0.1-0.2,0.2-0.4,0.2c-0.2,0-0.4-0.2-0.4-0.4H4C4,12.1,4,12,4,12z M2.9,11.8c0-0.2,0.2-0.3,0.4-0.3s0.3,0.1,0.3,0.3H2.9z"/>
		<polygon class="st1" points="6.3,12.2 6.7,11.2 7.2,11.2 6.5,12.8 6.1,12.8 5.4,11.2 5.8,11.2 		"/>
		<rect x="7.4" y="11.2" class="st1" width="0.4" height="1.6"/>
		<path class="st1" d="M9.6,12.5c-0.2,0.3-0.4,0.4-0.7,0.4C8.4,12.8,8,12.5,8,12c0-0.5,0.4-0.9,0.9-0.9c0.3,0,0.5,0.1,0.7,0.3
			l-0.3,0.3c-0.1-0.1-0.2-0.2-0.4-0.2c-0.3,0-0.4,0.2-0.4,0.4c0,0.3,0.2,0.4,0.4,0.4c0.2,0,0.3-0.1,0.4-0.2L9.6,12.5z"/>
		<path class="st1" d="M11.2,12.6c-0.2,0.2-0.4,0.3-0.7,0.3c-0.5,0-0.9-0.3-0.9-0.9c0-0.5,0.3-0.9,0.8-0.9c0.4,0,0.8,0.4,0.8,0.8
			c0,0.1,0,0.1,0,0.1h-1.2c0,0.2,0.2,0.4,0.4,0.4c0.2,0,0.3-0.1,0.4-0.2L11.2,12.6z M10.8,11.8c0-0.1-0.1-0.3-0.3-0.3
			c-0.2,0-0.3,0.1-0.4,0.3H10.8z"/>
		<path class="st1" d="M11.4,12.8v-1.6h0.4v0.1c0.1-0.1,0.3-0.2,0.5-0.2c0.2,0,0.4,0.1,0.6,0.3c0.1,0.1,0.2,0.3,0.2,0.6v0.8h-0.4V12
			c0-0.2,0-0.3-0.1-0.3c-0.1-0.1-0.1-0.1-0.3-0.1c-0.2,0-0.3,0.1-0.4,0.2v1.1C11.9,12.8,11.4,12.8,11.4,12.8z"/>
		<path class="st3" d="M14.2,11.1c-0.5,0-1,0.4-1,1c0,0.3,0.1,0.5,0.3,0.7c0.1,0.1,0.2,0.1,0.3,0c0.1-0.1,0.3-0.1,0.4-0.1
			c0.2,0,0.3,0.1,0.4,0.1c0.1,0.1,0.2,0.1,0.3,0c0.2-0.2,0.3-0.4,0.3-0.7C15.2,11.6,14.7,11.1,14.2,11.1 M14.2,12.6
			c-0.3,0-0.5-0.2-0.5-0.5s0.2-0.5,0.5-0.5c0.3,0,0.5,0.2,0.5,0.5S14.5,12.6,14.2,12.6"/>
		<polygon class="st1" points="16,12.8 15.7,12.8 15.1,11.2 15.5,11.2 15.8,12.1 16.2,11.2 16.6,11.2 16.9,12.1 17.3,11.2 
			17.7,11.2 17.1,12.8 16.7,12.8 16.4,11.9 		"/>
		<path class="st4" d="M17.7,12.6L17.7,12.6L17.7,12.6L17.7,12.6l-0.1-0.1h0.1C17.8,12.5,17.8,12.5,17.7,12.6
			C17.8,12.6,17.8,12.6,17.7,12.6L17.7,12.6L17.7,12.6L17.7,12.6z M17.7,12.6L17.7,12.6C17.8,12.6,17.8,12.6,17.7,12.6
			C17.8,12.6,17.8,12.6,17.7,12.6L17.7,12.6L17.7,12.6z"/>
		<path class="st4" d="M17.7,12.4c0.1,0,0.2,0.1,0.2,0.2c0,0.1-0.1,0.2-0.2,0.2c-0.1,0-0.2-0.1-0.2-0.2
			C17.5,12.5,17.6,12.4,17.7,12.4 M17.7,12.4c-0.1,0-0.2,0.1-0.2,0.2c0,0.1,0.1,0.2,0.2,0.2c0.1,0,0.2-0.1,0.2-0.2
			S17.8,12.4,17.7,12.4L17.7,12.4z"/>
	</g>
</g>
</svg>
