<svg id="Layer_1" data-name="Layer 1" xmlns="http://www.w3.org/2000/svg" viewBox="0 0 19 24"><defs><style>.cls-1{fill:#fff;}.cls-2{fill:none;stroke:#e6e7e8;stroke-miterlimit:10;stroke-width:0.15px;}.cls-3{fill:#31bef0;}</style></defs><rect class="cls-1" width="19" height="24"/><rect class="cls-1" width="19" height="24"/><circle class="cls-2" cx="9.5" cy="12" r="8.9"/><path class="cls-3" d="M8.5,10a.86.86,0,0,0,.3-.6V6.1a.82.82,0,0,0-.9-.8c-.4,0-.7.4-.8.8V8L5.5,7a1.06,1.06,0,0,0-1.2.2,1.06,1.06,0,0,0,.2,1.2h.2l2.8,1.7A.77.77,0,0,0,8.5,10ZM7.3,12a.84.84,0,0,0-.4-.7L4,9.6a.84.84,0,0,0-1.1.4.75.75,0,0,0,.2,1h.1l1.6,1-1.6.9A.84.84,0,0,0,2.8,14h0a.84.84,0,0,0,1.1.4H4l2.9-1.7a.84.84,0,0,0,.4-.7Zm1.4,2.6v3.3a.82.82,0,0,1-.9.8c-.4,0-.7-.4-.8-.8V16.1L5.5,17a.71.71,0,0,1-1.1-.2c-.2-.4-.2-.9.2-1.1h.2L7.6,14a1,1,0,0,1,1.2.3h0c-.1,0,0,.2-.1.3Zm1.5.1v3.2a.82.82,0,0,0,.9.8c.4,0,.7-.4.8-.8V16.1l1.6.9a.85.85,0,1,0,1.1-1.3c-.1,0-.1-.1-.2-.1h-.1l-2.8-1.7a.8.8,0,0,0-1.1.3.55.55,0,0,0-.2.5ZM11.7,12a.84.84,0,0,1,.4-.7L15,9.6A.86.86,0,0,1,16,11h0a.1.1,0,0,0-.1.1h-.1l-1.6.9,1.6.9a.73.73,0,0,1,.3,1.1.73.73,0,0,1-1.1.3h-.1L12,12.7a.78.78,0,0,1-.3-.7ZM10.2,9.3V6.1a.82.82,0,0,1,.9-.8c.4,0,.7.4.8.8V7.9L13.5,7a.8.8,0,0,1,1.1.3.91.91,0,0,1-.2,1.1h-.1l-2.8,1.7a.8.8,0,0,1-1.1-.3.55.55,0,0,1-.2-.5Zm-.4,1.2c0-.1-.1-.1-.2-.1H9.3c-.1,0-.1,0-.2.1L8,11.7c-.1,0-.1.1-.1.2v.3c0,.1,0,.1.1.2l1.1,1.1c.1.1.1.1.2.1h.3c.1,0,.1,0,.2-.1l1.1-1.1c0-.1.1-.1.1-.2v-.3c0-.1,0-.1-.1-.2L9.8,10.5Zm-.1,1-.1-.1h0c-.1,0-.1,0-.1.1l-.5.4V12H9c0,.1,0,.1.1.1l.3.3.1.1h0c.1,0,.1,0,.1-.1l.3-.3L10,12h0c0-.1,0-.1-.1-.1l-.2-.4Z"/></svg>