<svg id="Layer_1" data-name="Layer 1" xmlns="http://www.w3.org/2000/svg" viewBox="0 0 19 24.1"><defs><style>.cls-1,.cls-2{fill:#fff;}.cls-2{stroke:#e6e7e8;stroke-miterlimit:10;stroke-width:0.15px;}.cls-3{fill:#4e9bcd;}</style></defs><rect class="cls-1" width="19" height="24.1"/><rect class="cls-1" width="19" height="24.1"/><circle class="cls-2" cx="9.5" cy="12" r="8.9"/><path class="cls-3" d="M14.3,18.1h-.7A10.41,10.41,0,0,0,3.1,7.7h0V7A11.16,11.16,0,0,1,14.3,18.1Z"/><path class="cls-3" d="M14.8,14.3A10.54,10.54,0,0,0,7.4,6.7l.2-.6a11.43,11.43,0,0,1,7.8,8Zm.6-3.4a11.85,11.85,0,0,0-4.2-4.7l.3-.4a11.55,11.55,0,0,1,4.4,4.9Z"/></svg>